<svg width="32" height="32" viewBox="0 0 32 32" fill="none" xmlns="http://www.w3.org/2000/svg">
  <path d="M16.875 1.875C8.59152 1.875 1.875 8.59152 1.875 16.875C1.875 25.1585 8.59152 31.875 16.875 31.875C25.1585 31.875 31.875 25.1585 31.875 16.875C31.875 8.59152 25.1585 1.875 16.875 1.875ZM22.5 8.75C23.1904 8.75 23.75 9.30964 23.75 10C23.75 10.6904 23.1904 11.25 22.5 11.25C21.8096 11.25 21.25 10.6904 21.25 10C21.25 9.30964 21.8096 8.75 22.5 8.75ZM16 10C19.31 10 22 12.69 22 16C22 19.31 19.31 22 16 22C12.69 22 10 19.31 10 16C10 12.69 12.69 10 16 10ZM16 12.5C13.7953 12.5 12 14.2953 12 16.5C12 18.7047 13.7953 20.5 16 20.5C18.2047 20.5 20 18.7047 20 16.5C20 14.2953 18.2047 12.5 16 12.5Z" fill="#666666"/>
</svg>
